# xmcd CD database file
#
# Track frame offsets:
#	150
#	25669
#	46784
#	73469
#	100204
#	121451
#	142884
#	169629
#	193961
#	218699
#	239319
#	257152
#
# Disc length: 3732 seconds
#
# Revision: 2
# Processed by: cddbd v1.5.2PL0 Copyright (c) Steve Scherf et al.
# Submitted via: CDex 1.81
#
DISCID=ab0e920c
DTITLE=European Jazz Trio - Dancing Queen
DYEAR=2004
DGENRE=Jazz
TTITLE0=Dancing Queen
TTITLE1=Fragile
TTITLE2=Itsumo Nandodemo
TTITLE3=For Once In My Life
TTITLE4=Look Of Love
TTITLE5=Message In A Bottle
TTITLE6=Calling You
TTITLE7=We Can Work It Out
TTITLE8=Snooky
TTITLE9=Time After Time
TTITLE10=Tonight(West Side Story)
TTITLE11=Three Times A Lady
EXTD=YEAR: 2004
EXTT0=
EXTT1=
EXTT2=
EXTT3=
EXTT4=
EXTT5=
EXTT6=
EXTT7=
EXTT8=
EXTT9=
EXTT10=
EXTT11=
PLAYORDER=
